<svg aria-hidden="true" class="homepage-header__ellipse" viewBox="0 0 1718.10407 1082.34997" version="1.1" xmlns="http://www.w3.org/2000/svg" xmlns:xlink="http://www.w3.org/1999/xlink">
      <defs>
        <clipPath id="clip-clop">
          <path d="M1674.95 575.09 C1679.25 575.09 1683.54 575.09 1687.84 575.09 1598.88 1052.73 1369.2 1015.25 867.87 1069.92 115.87 1151.92 0 744.66 0 608.66 0 472.66 68.39 38.42 1053.77 0.92 1453.1 -19.74 1687.59 334.4 1687.84 575.09 1683.54 575.09 1679.25 575.09 1674.95 575.09 1647.98 328.46 1465.77 -0.4 1053.77 14.92 435.77 37.92 20 309.66 20 608.66 20 907.66 345.87 1117.92 867.87 1054.92 1332.99 998.36 1560.14 1057.6 1674.95 575.09 " class="transform-0" data-original="M1708,275.627991 L1717,275.627991 C1687,786.567482 1330.33333,1017.96132 829,1072.62799 C77,1154.62799 0,669.627991 0,533.627991 C0,397.627991 13,60.6279919 908,3.62799184 C1307.33333,-17.0386748 1708,47.5674823 1717,275.567482 L1708,275.567482 C1682,43.5674823 1320,2.2946585 908,17.6279919 C290,40.6279919 20,234.627991 20,533.627991 C20,832.627991 307,1120.62799 829,1057.62799 C1298.33333,1018.29466 1657,775.567482 1708,275.627991 Z"></path>
          <path d="M1674,583.785575 L1687,583.785575 C1596.33333,1060.45224 1370.33333,1015.17941 869,1069.84608 C117,1151.84608 0,746.846084 0,610.846084 C0,474.846084 70,37.7855753 1058,0.846084822 C1457.33333,-19.8205818 1687,342.725066 1687,583.785575 L1674,583.785575 C1647,336.725066 1470,-0.487248518 1058,14.8460849 C440,37.8460849 20,311.846084 20,610.846084 C20,909.846084 347,1117.84608 869,1054.84608 C1334,997.785575 1557.33333,1065.78558 1674,583.785575 Z" class="transform-1"></path>
        </clipPath>
      </defs>
      <path d="M1708,275.627991 L1717,275.627991 C1687,786.567482 1330.33333,1017.96132 829,1072.62799 C77,1154.62799 0,669.627991 0,533.627991 C0,397.627991 13,60.6279919 908,3.62799184 C1307.33333,-17.0386748 1708,47.5674823 1717,275.567482 L1708,275.567482 C1682,43.5674823 1320,2.2946585 908,17.6279919 C290,40.6279919 20,234.627991 20,533.627991 C20,832.627991 307,1120.62799 829,1057.62799 C1298.33333,1018.29466 1657,775.567482 1708,275.627991 Z" clip-path="url(#clip-clop)" fill="none" stroke-width="500" id="dash-offset"></path>
    </svg>